<svg width="96" height="45" viewBox="0 0 96 45" fill="none" xmlns="http://www.w3.org/2000/svg">
<path d="M11.0128 7.24321L7.22832 27.0107H4.28905L0.517209 7.24321H3.4817L5.6893 20.779C5.70612 21.1658 5.73135 21.7293 5.76499 22.4694C5.75658 22.0825 5.78181 21.519 5.84068 20.779L8.0609 7.24321H11.0128ZM15.6929 26.9855H12.741V7.24321H15.6929V26.9855ZM27.9545 26.9855H24.763L22.5932 20.0347L20.4109 26.9855H17.2698V26.8846L20.9533 16.881C18.6406 10.4894 17.4884 7.27685 17.4968 7.24321H20.6505L22.6185 13.6768L24.599 7.24321H27.7275V7.35674L24.271 16.8053L27.9545 26.9855Z" fill="#00FEB5"/>
<path d="M38.9547 25.1815C38.9547 26.3842 38.3576 26.9855 37.1634 26.9855H31.2218C30.036 26.9855 29.4431 26.3842 29.4431 25.1815V20.4762H32.395V24.5003H36.0028V20.6276L30.0865 15.0266C29.6575 14.6145 29.4431 14.0889 29.4431 13.4497V9.05975C29.4431 7.84872 30.036 7.24321 31.2218 7.24321H37.1634C38.3576 7.24321 38.9547 7.84031 38.9547 9.03452V13.4497H36.0028V9.72834H32.395V13.2983L38.3113 18.8741C38.7403 19.2778 38.9547 19.8118 38.9547 20.4762V25.1815ZM50.8379 17.9911C50.8379 19.2189 50.2366 19.8328 49.034 19.8328H44.2529V26.9855H41.3011V7.24321H49.034C50.2366 7.24321 50.8379 7.84872 50.8379 9.05975V17.9911ZM47.8608 17.2973V9.7788H44.2529V17.2973H47.8608Z" fill="#D4D4D4"/>
<path d="M76.7024 26.9855H73.4478L69.7012 18.1803V26.9855H66.7493V7.24321H69.7012V15.5942L72.981 7.24321H76.2104V7.38197L72.1989 16.7548L76.7024 26.9855ZM86.0879 26.9855H77.9008V7.24321H86.0122V9.85449H80.8527V15.6195H85.2931V18.1803H80.8527V24.3742H86.0879V26.9855Z" fill="#D4D4D4"/>
<path d="M31.274 42.9556L44.236 31.1082L52.9386 35.3376L58.4491 8.69601L65.3095 42.9556" stroke="url(#paint0_linear_343_316)" stroke-width="2.58352" stroke-linecap="round" stroke-linejoin="round"/>
<defs>
<linearGradient id="paint0_linear_343_316" x1="58.5" y1="7.48547" x2="31" y2="42.9855" gradientUnits="userSpaceOnUse">
<stop offset="0.243487" stop-color="#00FEB5"/>
<stop offset="1" stop-color="#78CEF4"/>
</linearGradient>
</defs>
</svg>
