<svg width="19" height="19" viewBox="0 0 19 19" fill="none" xmlns="http://www.w3.org/2000/svg">
<path d="M9.5 2.57797C5.468 2.57797 2.1875 5.85847 2.1875 9.89047C2.1875 13.9225 5.468 17.203 9.5 17.203C13.532 17.203 16.8125 13.9225 16.8125 9.89047C16.8125 5.85847 13.532 2.57797 9.5 2.57797ZM9.5 3.70297C12.9239 3.70297 15.6875 6.46654 15.6875 9.89047C15.6875 13.3144 12.9239 16.078 9.5 16.078C6.07606 16.078 3.3125 13.3144 3.3125 9.89047C3.3125 6.46654 6.07606 3.70297 9.5 3.70297ZM7.37375 6.95422L6.56375 7.76422L8.69225 9.89047L6.56487 12.0167L7.37488 12.8267L9.5 10.6988L11.6263 12.825L12.4362 12.0167L10.3083 9.89047L12.4346 7.76422L11.6263 6.95422L9.5 9.08272L7.37375 6.95535V6.95422Z" fill="black"/>
</svg>
