<svg width="24" height="24" viewBox="0 0 24 24" fill="none" xmlns="http://www.w3.org/2000/svg">
<path d="M21.25 23H2.75C1.233 23 0 21.767 0 20.25V3.75C0 2.233 1.233 1 2.75 1H21.25C22.767 1 24 2.233 24 3.75V20.25C24 21.767 22.767 23 21.25 23ZM2.75 2.5C2.061 2.5 1.5 3.061 1.5 3.75V20.25C1.5 20.939 2.061 21.5 2.75 21.5H21.25C21.939 21.5 22.5 20.939 22.5 20.25V3.75C22.5 3.061 21.939 2.5 21.25 2.5H2.75Z" fill="#D4D4D4"/>
<path d="M23.25 8.5H0.75C0.336 8.5 0 8.164 0 7.75C0 7.336 0.336 7 0.75 7H23.25C23.664 7 24 7.336 24 7.75C24 8.164 23.664 8.5 23.25 8.5Z" fill="#D4D4D4"/>
<path d="M23.25 13.5H0.75C0.336 13.5 0 13.164 0 12.75C0 12.336 0.336 12 0.75 12H23.25C23.664 12 24 12.336 24 12.75C24 13.164 23.664 13.5 23.25 13.5Z" fill="#D4D4D4"/>
<path d="M23.25 18.5H0.75C0.336 18.5 0 18.164 0 17.75C0 17.336 0.336 17 0.75 17H23.25C23.664 17 24 17.336 24 17.75C24 18.164 23.664 18.5 23.25 18.5Z" fill="#D4D4D4"/>
<path d="M6.25 23C5.836 23 5.5 22.664 5.5 22.25V7.75C5.5 7.336 5.836 7 6.25 7C6.664 7 7 7.336 7 7.75V22.25C7 22.664 6.664 23 6.25 23Z" fill="#D4D4D4"/>
<path d="M12 23C11.586 23 11.25 22.664 11.25 22.25V7.75C11.25 7.336 11.586 7 12 7C12.414 7 12.75 7.336 12.75 7.75V22.25C12.75 22.664 12.414 23 12 23Z" fill="#D4D4D4"/>
<path d="M17.75 23C17.336 23 17 22.664 17 22.25V7.75C17 7.336 17.336 7 17.75 7C18.164 7 18.5 7.336 18.5 7.75V22.25C18.5 22.664 18.164 23 17.75 23Z" fill="#D4D4D4"/>
</svg>
