<svg width="24" height="24" viewBox="0 0 24 24" fill="none" xmlns="http://www.w3.org/2000/svg">
<g clip-path="url(#clip0_10_425)">
<path fill-rule="evenodd" clip-rule="evenodd" d="M12.0001 6.69766C9.07543 6.69766 6.69775 9.07534 6.69775 12C6.69775 14.9246 9.07543 17.3023 12.0001 17.3023C14.9247 17.3023 17.3024 14.9246 17.3024 12C17.3024 9.07534 14.9247 6.69766 12.0001 6.69766Z" fill="#D4D4D4"/>
<path fill-rule="evenodd" clip-rule="evenodd" d="M12.0001 0C12.4577 0 12.8373 0.379535 12.8373 0.837209V4.18605C12.8373 4.64372 12.4577 5.02326 12.0001 5.02326C11.5424 5.02326 11.1628 4.64372 11.1628 4.18605V0.837209C11.1628 0.379535 11.5424 0 12.0001 0Z" fill="#D4D4D4"/>
<path fill-rule="evenodd" clip-rule="evenodd" d="M12.0001 18.9767C12.4577 18.9767 12.8373 19.3563 12.8373 19.814V23.1628C12.8373 23.6205 12.4577 24 12.0001 24C11.5424 24 11.1628 23.6205 11.1628 23.1628V19.814C11.1628 19.3563 11.5424 18.9767 12.0001 18.9767Z" fill="#D4D4D4"/>
<path fill-rule="evenodd" clip-rule="evenodd" d="M0 12C0 11.5423 0.379535 11.1628 0.837209 11.1628H4.18605C4.64372 11.1628 5.02326 11.5423 5.02326 12C5.02326 12.4577 4.64372 12.8372 4.18605 12.8372H0.837209C0.379535 12.8372 0 12.4577 0 12Z" fill="#D4D4D4"/>
<path fill-rule="evenodd" clip-rule="evenodd" d="M18.9768 12C18.9768 11.5423 19.3563 11.1628 19.814 11.1628H23.1629C23.6205 11.1628 24.0001 11.5423 24.0001 12C24.0001 12.4577 23.6205 12.8372 23.1629 12.8372H19.814C19.3563 12.8372 18.9768 12.4577 18.9768 12Z" fill="#D4D4D4"/>
<path fill-rule="evenodd" clip-rule="evenodd" d="M3.51623 20.4837C3.19251 20.16 3.19251 19.6242 3.51623 19.3005L5.88274 16.934C6.20646 16.6102 6.74227 16.6102 7.066 16.934C7.38972 17.2577 7.38972 17.7935 7.066 18.1172L4.69948 20.4837C4.37576 20.8074 3.83995 20.8074 3.51623 20.4837Z" fill="#D4D4D4"/>
<path fill-rule="evenodd" clip-rule="evenodd" d="M20.4837 20.4837C20.8074 20.16 20.8074 19.6242 20.4837 19.3005L18.1172 16.934C17.7935 16.6102 17.2577 16.6102 16.934 16.934C16.6102 17.2577 16.6102 17.7935 16.934 18.1172L19.3005 20.4837C19.6242 20.8074 20.16 20.8074 20.4837 20.4837Z" fill="#D4D4D4"/>
<path fill-rule="evenodd" clip-rule="evenodd" d="M16.934 7.06606C16.6102 6.74234 16.6102 6.20652 16.934 5.8828L19.3005 3.51629C19.6242 3.19257 20.16 3.19257 20.4837 3.51629C20.8074 3.84001 20.8074 4.37582 20.4837 4.69954L18.1172 7.06606C17.7935 7.38978 17.2577 7.38978 16.934 7.06606Z" fill="#D4D4D4"/>
<path fill-rule="evenodd" clip-rule="evenodd" d="M7.066 7.06606C7.38972 6.74234 7.38972 6.20652 7.066 5.8828L4.69948 3.51629C4.37576 3.19257 3.83995 3.19257 3.51623 3.51629C3.19251 3.84001 3.19251 4.37582 3.51623 4.69954L5.88274 7.06606C6.20646 7.38978 6.74227 7.38978 7.066 7.06606Z" fill="#D4D4D4"/>
</g>
<defs>
<clipPath id="clip0_10_425">
<rect width="24" height="24" fill="white"/>
</clipPath>
</defs>
</svg>
