<svg width="25" height="24" viewBox="0 0 25 24" fill="none" xmlns="http://www.w3.org/2000/svg">
<path d="M7.70039 8.8L8.09719 8.1056C7.97554 8.03611 7.83778 7.99979 7.69769 8.00026C7.55759 8.00074 7.42008 8.03799 7.29891 8.1083C7.17773 8.1786 7.07714 8.2795 7.00721 8.40089C6.93727 8.52228 6.90044 8.65991 6.90039 8.8H7.70039ZM7.70039 15.2H6.90039C6.90044 15.3401 6.93727 15.4777 7.00721 15.5991C7.07714 15.7205 7.17773 15.8214 7.29891 15.8917C7.42008 15.962 7.55759 15.9993 7.69769 15.9997C7.83778 16.0002 7.97554 15.9639 8.09719 15.8944L7.70039 15.2ZM13.3004 12L13.6972 12.6944C13.8196 12.6244 13.9212 12.5233 13.992 12.4014C14.0627 12.2794 14.0999 12.141 14.0999 12C14.0999 11.859 14.0627 11.7206 13.992 11.5986C13.9212 11.4767 13.8196 11.3756 13.6972 11.3056L13.3004 12ZM6.90039 8.8V15.2H8.50039V8.8H6.90039ZM8.09719 15.8944L13.6972 12.6944L12.9036 11.3056L7.30359 14.5056L8.09719 15.8944ZM13.6972 11.3056L8.09719 8.1056L7.30359 9.4944L12.9036 12.6944L13.6972 11.3056ZM16.5004 8V16H18.1004V8H16.5004Z" fill="#D4D4D4"/>
</svg>
