<svg width="41" height="30" viewBox="0 0 41 30" fill="none" xmlns="http://www.w3.org/2000/svg">
<path d="M38.5806 12.662H35.5954C34.5617 12.662 33.7158 11.8161 33.7158 10.7825C33.7158 9.74857 34.5617 8.90292 35.5954 8.90292H38.5806C39.6145 8.90292 40.4601 9.74857 40.4601 10.7825C40.4601 11.8161 39.6145 12.662 38.5806 12.662Z" fill="#D4D4D4"/>
<path d="M31.6522 18.7938H27.6611C26.7658 18.7938 26.0332 18.0612 26.0332 17.1659C26.0332 16.2707 26.7658 15.5381 27.6611 15.5381H31.6522C32.5475 15.5381 33.2801 16.2707 33.2801 17.1659C33.2801 18.0612 32.5475 18.7938 31.6522 18.7938Z" fill="#D4D4D4"/>
<path d="M34.4065 25.1264H33.0946C32.3531 25.1264 31.7461 24.5196 31.7461 23.7779C31.7461 23.0361 32.3528 22.4294 33.0946 22.4294H34.4065C35.148 22.4294 35.755 23.0361 35.755 23.7779C35.7548 24.5196 35.148 25.1264 34.4065 25.1264Z" fill="#D4D4D4"/>
<path d="M38.3768 18.7938H36.7432C35.8198 18.7938 35.0645 18.0382 35.0645 17.115C35.0645 16.1916 35.82 15.4363 36.7432 15.4363H38.3768C39.3003 15.4363 40.0556 16.1919 40.0556 17.115C40.0558 18.0382 39.3003 18.7938 38.3768 18.7938Z" fill="#D4D4D4"/>
<path d="M15.7165 2.86852H9.29176C8.58396 2.86852 8.00488 2.28944 8.00488 1.58164V1.28688C8.00488 0.579082 8.58396 0 9.29176 0H15.7165C16.4243 0 17.0034 0.579082 17.0034 1.28688V1.58164C17.0036 2.28944 16.4243 2.86852 15.7165 2.86852Z" fill="#D4D4D4"/>
<path d="M30.3615 8.90295H23.3418C22.2202 8.90295 21.1377 8.51054 20.2631 7.80849C18.6026 6.4754 16.5938 5.55926 14.3947 5.2175V4.15463H10.5367V5.21933C4.71221 6.1339 0.172501 11.1185 0.00488561 17.1814C-0.189882 24.2272 5.46387 30 12.4659 30C16.05 30 19.2809 28.4873 21.5549 26.0655C22.0526 25.5355 22.7402 25.2253 23.4671 25.2253H28.4326C29.4937 25.2253 30.3618 24.3572 30.3618 23.2962C30.3618 22.2351 29.4937 21.367 28.4326 21.367H26.2542C25.3158 21.367 24.6065 20.5235 24.761 19.5977C24.873 18.9264 24.9315 18.2372 24.9315 17.5341C24.9315 16.577 24.8234 15.6449 24.619 14.7499C24.3981 13.7828 25.125 12.8597 26.1171 12.8597H30.362C31.4502 12.8597 32.3405 11.9694 32.3405 10.8812C32.34 9.79324 31.4497 8.90295 30.3615 8.90295Z" fill="#D4D4D4"/>
<path d="M21.4788 16.219C21.4833 16.2166 21.4874 16.2143 21.4919 16.2122C21.7618 16.0704 21.9094 15.7665 21.8441 15.4686C21.5619 14.1776 21.0198 12.9826 20.2747 11.9422C20.0416 11.6166 19.5763 11.5686 19.2735 11.8307C19.2698 11.8338 19.2659 11.8372 19.2622 11.8404C18.9941 12.0722 18.9492 12.4691 19.1552 12.7576C19.7883 13.6442 20.2497 14.6614 20.4906 15.76C20.5878 16.2023 21.0781 16.4294 21.4788 16.219Z" fill="#30353A"/>
<path d="M13.7361 25.6407C13.1612 25.7305 12.5667 25.7605 11.9592 25.7237C7.80561 25.4715 4.46662 22.0975 4.25906 17.9414C4.0233 13.221 7.79569 9.30526 12.4654 9.30526C14.5019 9.30526 16.367 10.0507 17.804 11.2822C18.0628 11.5038 18.444 11.5044 18.7016 11.2814C18.705 11.2783 18.7087 11.2754 18.7121 11.2723C19.0301 10.9971 19.0241 10.5036 18.7048 10.23C16.9218 8.70216 14.5744 7.81526 12.0229 7.9304C7.06466 8.15415 3.06252 12.1837 2.87062 17.1432C2.65914 22.6095 7.04482 27.1242 12.4652 27.1242C12.9683 27.1242 13.4622 27.085 13.9445 27.0098C14.2828 26.9571 14.5332 26.6668 14.5332 26.3245C14.5337 25.9 14.1554 25.5752 13.7361 25.6407Z" fill="#30353A"/>
<path d="M11.7727 19.9953C11.761 19.9953 11.7492 19.995 11.7375 19.9945C11.5487 19.9848 11.372 19.8984 11.2485 19.7554L9.35954 17.5659C9.10969 17.2764 9.14206 16.8391 9.4316 16.5892C9.72088 16.3396 10.1585 16.3715 10.4083 16.6613L11.8242 18.3024L16.2344 14.1371C16.5127 13.8745 16.9508 13.8872 17.2132 14.165C17.4758 14.4431 17.4633 14.8812 17.1852 15.1438L12.2484 19.8065C12.1194 19.9282 11.9492 19.9953 11.7727 19.9953Z" fill="#30353A"/>
</svg>
