<svg width="41" height="30" viewBox="0 0 41 30" fill="none" xmlns="http://www.w3.org/2000/svg">
<path d="M38.5806 12.6619H35.5954C34.5617 12.6619 33.7158 11.816 33.7158 10.7824C33.7158 9.74848 34.5617 8.90283 35.5954 8.90283H38.5806C39.6145 8.90283 40.4601 9.74848 40.4601 10.7824C40.4601 11.816 39.6145 12.6619 38.5806 12.6619Z" fill="white"/>
<path d="M31.6522 18.7938H27.6611C26.7658 18.7938 26.0332 18.0612 26.0332 17.1659C26.0332 16.2707 26.7658 15.5381 27.6611 15.5381H31.6522C32.5475 15.5381 33.2801 16.2707 33.2801 17.1659C33.2801 18.0612 32.5475 18.7938 31.6522 18.7938Z" fill="white"/>
<path d="M34.4065 25.1262H33.0946C32.3531 25.1262 31.7461 24.5194 31.7461 23.7777C31.7461 23.036 32.3528 22.4292 33.0946 22.4292H34.4065C35.148 22.4292 35.755 23.036 35.755 23.7777C35.7548 24.5194 35.148 25.1262 34.4065 25.1262Z" fill="white"/>
<path d="M38.3768 18.7936H36.7432C35.8198 18.7936 35.0645 18.038 35.0645 17.1148C35.0645 16.1913 35.82 15.436 36.7432 15.436H38.3768C39.3003 15.436 40.0556 16.1916 40.0556 17.1148C40.0558 18.038 39.3003 18.7936 38.3768 18.7936Z" fill="white"/>
<path d="M15.7165 2.86852H9.29176C8.58396 2.86852 8.00488 2.28944 8.00488 1.58164V1.28688C8.00488 0.579082 8.58396 0 9.29176 0H15.7165C16.4243 0 17.0034 0.579082 17.0034 1.28688V1.58164C17.0036 2.28944 16.4243 2.86852 15.7165 2.86852Z" fill="white"/>
<path d="M30.3615 8.90285H23.3418C22.2202 8.90285 21.1377 8.51045 20.2631 7.80839C18.6026 6.47531 16.5938 5.55917 14.3947 5.21741V4.15454H10.5367V5.21924C4.71221 6.13381 0.172501 11.1184 0.00488561 17.1813C-0.189882 24.2271 5.46387 29.9999 12.4659 29.9999C16.05 29.9999 19.2809 28.4872 21.5549 26.0654C22.0526 25.5354 22.7402 25.2252 23.4671 25.2252H28.4326C29.4937 25.2252 30.3618 24.3571 30.3618 23.2961C30.3618 22.2351 29.4937 21.367 28.4326 21.367H26.2542C25.3158 21.367 24.6065 20.5234 24.761 19.5976C24.873 18.9264 24.9315 18.2371 24.9315 17.534C24.9315 16.5769 24.8234 15.6448 24.619 14.7498C24.3981 13.7828 25.125 12.8596 26.1171 12.8596H30.362C31.4502 12.8596 32.3405 11.9693 32.3405 10.8811C32.34 9.79315 31.4497 8.90285 30.3615 8.90285Z" fill="white"/>
<path d="M21.4788 16.2191C21.4833 16.2167 21.4874 16.2144 21.4919 16.2123C21.7618 16.0705 21.9094 15.7666 21.8441 15.4687C21.5619 14.1777 21.0198 12.9827 20.2747 11.9423C20.0416 11.6167 19.5763 11.5687 19.2735 11.8308C19.2698 11.8339 19.2659 11.8373 19.2622 11.8405C18.9941 12.0723 18.9492 12.4692 19.1552 12.7576C19.7883 13.6443 20.2497 14.6615 20.4906 15.7601C20.5878 16.2024 21.0781 16.4295 21.4788 16.2191Z" fill="white"/>
<path d="M13.7361 25.6407C13.1612 25.7305 12.5667 25.7605 11.9592 25.7237C7.80561 25.4715 4.46662 22.0975 4.25906 17.9414C4.0233 13.221 7.79569 9.30526 12.4654 9.30526C14.5019 9.30526 16.367 10.0507 17.804 11.2822C18.0628 11.5038 18.444 11.5044 18.7016 11.2814C18.705 11.2783 18.7087 11.2754 18.7121 11.2723C19.0301 10.9971 19.0241 10.5036 18.7048 10.23C16.9218 8.70216 14.5744 7.81526 12.0229 7.9304C7.06466 8.15415 3.06252 12.1837 2.87062 17.1432C2.65914 22.6095 7.04482 27.1242 12.4652 27.1242C12.9683 27.1242 13.4622 27.085 13.9445 27.0098C14.2828 26.9571 14.5332 26.6668 14.5332 26.3245C14.5337 25.9 14.1554 25.5752 13.7361 25.6407Z" fill="#00BF88"/>
<path d="M11.7727 19.9954C11.761 19.9954 11.7492 19.9951 11.7375 19.9946C11.5487 19.985 11.372 19.8985 11.2485 19.7555L9.35954 17.566C9.10969 17.2765 9.14206 16.8392 9.4316 16.5893C9.72088 16.3397 10.1585 16.3716 10.4083 16.6614L11.8242 18.3025L16.2344 14.1372C16.5127 13.8746 16.9508 13.8874 17.2132 14.1652C17.4758 14.4432 17.4633 14.8813 17.1852 15.144L12.2484 19.8066C12.1194 19.9283 11.9492 19.9954 11.7727 19.9954Z" fill="#00BF88"/>
</svg>
