<svg width="18" height="19" viewBox="0 0 18 19" fill="none" xmlns="http://www.w3.org/2000/svg">
<path d="M6.1875 7.25H2.8125C2.502 7.25 2.25 6.998 2.25 6.6875V3.3125C2.25 3.002 2.502 2.75 2.8125 2.75H6.1875C6.498 2.75 6.75 3.002 6.75 3.3125V6.6875C6.75 6.998 6.498 7.25 6.1875 7.25Z" fill="#00FEB5"/>
<path d="M10.6875 4.625H8.8125C8.502 4.625 8.25 4.373 8.25 4.0625C8.25 3.752 8.502 3.5 8.8125 3.5H10.6875C10.998 3.5 11.25 3.752 11.25 4.0625C11.25 4.373 10.998 4.625 10.6875 4.625Z" fill="#00FEB5"/>
<path d="M10.6875 6.875H8.8125C8.502 6.875 8.25 6.623 8.25 6.3125C8.25 6.002 8.502 5.75 8.8125 5.75H10.6875C10.998 5.75 11.25 6.002 11.25 6.3125C11.25 6.623 10.998 6.875 10.6875 6.875Z" fill="#00FEB5"/>
<path d="M10.6875 9.875H2.8125C2.502 9.875 2.25 9.623 2.25 9.3125C2.25 9.002 2.502 8.75 2.8125 8.75H10.6875C10.998 8.75 11.25 9.002 11.25 9.3125C11.25 9.623 10.998 9.875 10.6875 9.875Z" fill="#00FEB5"/>
<path d="M10.6875 12.6875H2.8125C2.502 12.6875 2.25 12.4355 2.25 12.125C2.25 11.8145 2.502 11.5625 2.8125 11.5625H10.6875C10.998 11.5625 11.25 11.8145 11.25 12.125C11.25 12.4355 10.998 12.6875 10.6875 12.6875Z" fill="#00FEB5"/>
<path d="M10.6875 15.5H2.8125C2.502 15.5 2.25 15.248 2.25 14.9375C2.25 14.627 2.502 14.375 2.8125 14.375H10.6875C10.998 14.375 11.25 14.627 11.25 14.9375C11.25 15.248 10.998 15.5 10.6875 15.5Z" fill="#00FEB5"/>
<path d="M15.75 2.75H14.25V15.5V16.7908C13.8045 16.5298 13.5 16.0513 13.5 15.5V2.75C13.5 1.5095 12.4905 0.5 11.25 0.5H2.25C1.0095 0.5 0 1.5095 0 2.75V15.5C0 17.1545 1.3455 18.5 3 18.5H15.1875C15.2513 18.5 15.3135 18.4917 15.3727 18.4775C16.8517 18.293 18 17.0278 18 15.5V5C18 3.7595 16.9905 2.75 15.75 2.75ZM3 17C2.17275 17 1.5 16.3273 1.5 15.5V2.75C1.5 2.336 1.83675 2 2.25 2H11.25C11.6632 2 12 2.336 12 2.75V15.5C12 16.046 12.1463 16.5583 12.4028 17H3Z" fill="#00FEB5"/>
</svg>
