<svg width="30" height="27" viewBox="0 0 30 27" fill="none" xmlns="http://www.w3.org/2000/svg">
<path d="M5.625 6.375C5.37636 6.375 5.1379 6.47377 4.96209 6.64959C4.78627 6.8254 4.6875 7.06386 4.6875 7.3125C4.6875 7.56114 4.78627 7.7996 4.96209 7.97541C5.1379 8.15123 5.37636 8.25 5.625 8.25H22.5C22.7486 8.25 22.9871 8.15123 23.1629 7.97541C23.3387 7.7996 23.4375 7.56114 23.4375 7.3125C23.4375 7.06386 23.3387 6.8254 23.1629 6.64959C22.9871 6.47377 22.7486 6.375 22.5 6.375H5.625ZM5.15625 10.125C5.03193 10.125 4.9127 10.1744 4.82479 10.2623C4.73689 10.3502 4.6875 10.4694 4.6875 10.5938C4.6875 10.7181 4.73689 10.8373 4.82479 10.9252C4.9127 11.0131 5.03193 11.0625 5.15625 11.0625H22.9688C23.0931 11.0625 23.2123 11.0131 23.3002 10.9252C23.3881 10.8373 23.4375 10.7181 23.4375 10.5938C23.4375 10.4694 23.3881 10.3502 23.3002 10.2623C23.2123 10.1744 23.0931 10.125 22.9688 10.125H5.15625ZM17.8125 13.4062C17.8125 13.2819 17.8619 13.1627 17.9498 13.0748C18.0377 12.9869 18.1569 12.9375 18.2812 12.9375H22.9688C23.0931 12.9375 23.2123 12.9869 23.3002 13.0748C23.3881 13.1627 23.4375 13.2819 23.4375 13.4062C23.4375 13.5306 23.3881 13.6498 23.3002 13.7377C23.2123 13.8256 23.0931 13.875 22.9688 13.875H18.2812C18.1569 13.875 18.0377 13.8256 17.9498 13.7377C17.8619 13.6498 17.8125 13.5306 17.8125 13.4062ZM18.2812 15.75C18.1569 15.75 18.0377 15.7994 17.9498 15.8873C17.8619 15.9752 17.8125 16.0944 17.8125 16.2188C17.8125 16.3431 17.8619 16.4623 17.9498 16.5502C18.0377 16.6381 18.1569 16.6875 18.2812 16.6875H22.9688C23.0931 16.6875 23.2123 16.6381 23.3002 16.5502C23.3881 16.4623 23.4375 16.3431 23.4375 16.2188C23.4375 16.0944 23.3881 15.9752 23.3002 15.8873C23.2123 15.7994 23.0931 15.75 22.9688 15.75H18.2812ZM17.8125 19.0312C17.8125 18.9069 17.8619 18.7877 17.9498 18.6998C18.0377 18.6119 18.1569 18.5625 18.2812 18.5625H22.9688C23.0931 18.5625 23.2123 18.6119 23.3002 18.6998C23.3881 18.7877 23.4375 18.9069 23.4375 19.0312C23.4375 19.1556 23.3881 19.2748 23.3002 19.3627C23.2123 19.4506 23.0931 19.5 22.9688 19.5H18.2812C18.1569 19.5 18.0377 19.4506 17.9498 19.3627C17.8619 19.2748 17.8125 19.1556 17.8125 19.0312ZM18.2812 21.375C18.1569 21.375 18.0377 21.4244 17.9498 21.5123C17.8619 21.6002 17.8125 21.7194 17.8125 21.8438C17.8125 21.9681 17.8619 22.0873 17.9498 22.1752C18.0377 22.2631 18.1569 22.3125 18.2812 22.3125H22.9688C23.0931 22.3125 23.2123 22.2631 23.3002 22.1752C23.3881 22.0873 23.4375 21.9681 23.4375 21.8438C23.4375 21.7194 23.3881 21.6002 23.3002 21.5123C23.2123 21.4244 23.0931 21.375 22.9688 21.375H18.2812ZM4.6875 14.8125C4.6875 14.3152 4.88504 13.8383 5.23667 13.4867C5.58831 13.135 6.06522 12.9375 6.5625 12.9375H14.0625C14.5598 12.9375 15.0367 13.135 15.3883 13.4867C15.74 13.8383 15.9375 14.3152 15.9375 14.8125V20.4375C15.9375 20.9348 15.74 21.4117 15.3883 21.7633C15.0367 22.115 14.5598 22.3125 14.0625 22.3125H6.5625C6.06522 22.3125 5.58831 22.115 5.23667 21.7633C4.88504 21.4117 4.6875 20.9348 4.6875 20.4375V14.8125Z" fill="#D4D4D4"/>
<path d="M7.5 0.75C7.00272 0.75 6.52581 0.947544 6.17417 1.29917C5.82254 1.65081 5.625 2.12772 5.625 2.625H3.71438C2.11125 2.625 0.9375 3.95438 0.9375 5.4375V22.3125C0.9375 24.3131 2.51531 26.0625 4.61531 26.0625H27.2034C27.698 26.0583 28.1708 25.8589 28.519 25.5077C28.8672 25.1565 29.0625 24.682 29.0625 24.1875V2.625C29.0625 2.12772 28.865 1.65081 28.5133 1.29917C28.1617 0.947544 27.6848 0.75 27.1875 0.75H17.865H7.5ZM24.4125 4.5C24.6216 4.50289 24.8233 4.57775 24.9836 4.71197C25.144 4.84619 25.2532 5.03156 25.2928 5.23688C25.3059 5.30156 25.3134 5.36812 25.3134 5.4375V22.3125C25.3134 22.8098 25.511 23.2867 25.8626 23.6383C26.2142 23.99 26.6912 24.1875 27.1884 24.1875H4.61531C3.61969 24.1875 2.8125 23.3484 2.8125 22.3125V5.4375C2.8125 4.92 3.21562 4.5 3.71438 4.5H24.4125Z" fill="#D4D4D4"/>
</svg>
