<svg width="24" height="24" viewBox="0 0 24 24" fill="none" xmlns="http://www.w3.org/2000/svg">
<path fill-rule="evenodd" clip-rule="evenodd" d="M10.844 1C7.19458 1 3.98081 2.98327 2.12224 5.98885C1.92864 6.30576 1.97704 6.72491 2.2384 6.98048C2.49976 7.23606 2.90632 7.24628 3.17736 7.01115C4.21313 6.13197 5.52961 5.61059 6.96226 5.61059C10.3019 5.61059 13.0123 8.47305 13.0123 12C13.0123 15.527 10.3019 18.3894 6.96226 18.3894C5.52961 18.3894 4.21313 17.868 3.17736 16.9888C2.89664 16.7537 2.49976 16.7639 2.2384 17.0195C1.97704 17.2751 1.91896 17.6942 2.12224 18.0112C3.98081 21.0065 7.1849 23 10.844 23C16.5939 23 21.25 18.0827 21.25 12.0102C21.25 5.93773 16.5842 1 10.844 1Z" fill="#00FEB5"/>
</svg>
