<svg width="12" height="8" viewBox="0 0 12 8" fill="none" xmlns="http://www.w3.org/2000/svg">
<path d="M10.7996 0.8L10.4028 0.1056C10.5245 0.036113 10.6622 -0.000210905 10.8023 0.000262451C10.9424 0.000735808 11.0799 0.0379896 11.2011 0.108297C11.3223 0.178604 11.4229 0.2795 11.4928 0.40089C11.5627 0.522279 11.5996 0.659905 11.5996 0.8H10.7996ZM10.7996 7.2H11.5996C11.5996 7.34009 11.5627 7.47772 11.4928 7.59911C11.4229 7.7205 11.3223 7.82139 11.2011 7.8917C11.0799 7.96201 10.9424 7.99926 10.8023 7.99974C10.6622 8.00021 10.5245 7.96389 10.4028 7.8944L10.7996 7.2ZM5.19961 4L4.80281 4.6944C4.68045 4.6244 4.57876 4.52331 4.50803 4.40137C4.43731 4.27943 4.40006 4.14097 4.40006 4C4.40006 3.85903 4.43731 3.72057 4.50803 3.59863C4.57876 3.47669 4.68045 3.3756 4.80281 3.3056L5.19961 4ZM11.5996 0.8V7.2H9.99961V0.8H11.5996ZM10.4028 7.8944L4.80281 4.6944L5.59641 3.3056L11.1964 6.5056L10.4028 7.8944ZM4.80281 3.3056L10.4028 0.1056L11.1964 1.4944L5.59641 4.6944L4.80281 3.3056ZM1.99961 0V8H0.39961V0H1.99961Z" fill="#D4D4D4"/>
</svg>
