<svg width="18" height="19" viewBox="0 0 18 19" fill="none" xmlns="http://www.w3.org/2000/svg">
<path d="M11.3613 7.54211C11.3613 7.54211 10.1501 10.9554 9.57484 11.5512C9.29713 11.8313 8.92031 11.9907 8.52595 11.9949C8.13159 11.9992 7.75142 11.8479 7.46774 11.574C7.18405 11.3 7.01968 10.9253 7.0102 10.5311C7.00072 10.1368 7.1469 9.75465 7.41708 9.46736C7.99233 8.87111 11.3613 7.54211 11.3613 7.54211Z" stroke="#D4D4D4" stroke-linejoin="round"/>
<path d="M14.5687 15.0688C15.301 14.3382 15.8817 13.4701 16.2774 12.5145C16.6732 11.5588 16.8763 10.5344 16.875 9.5C16.875 5.15075 13.3492 1.625 9 1.625C4.65075 1.625 1.125 5.15075 1.125 9.5C1.125 11.6746 2.00625 13.6434 3.43125 15.0688M9 2V3.5M14.5669 4.67825L13.4014 5.62213M15.9457 10.7124L14.4844 10.3749M2.05388 10.7124L3.51562 10.3749M3.43312 4.67825L4.59862 5.62213" stroke="#D4D4D4" stroke-linecap="round" stroke-linejoin="round"/>
</svg>
